solid csg.js
facet normal -1 0 0
outer loop
vertex -25 -15 7
vertex -25 -15 17
vertex -25 -5 17
endloop
endfacet
facet normal -1 0 0
outer loop
vertex -25 -15 7
vertex -25 -5 17
vertex -25 -5 7
endloop
endfacet
facet normal 1 0 0
outer loop
vertex -15 -15 7
vertex -15 -5 7
vertex -15 -5 17
endloop
endfacet
facet normal 1 0 0
outer loop
vertex -15 -15 7
vertex -15 -5 17
vertex -15 -15 17
endloop
endfacet
facet normal 0 -1 0
outer loop
vertex -25 -15 7
vertex -15 -15 7
vertex -15 -15 17
endloop
endfacet
facet normal 0 -1 0
outer loop
vertex -25 -15 7
vertex -15 -15 17
vertex -25 -15 17
endloop
endfacet
facet normal 0 1 0
outer loop
vertex -25 -5 7
vertex -25 -5 17
vertex -15 -5 17
endloop
endfacet
facet normal 0 1 0
outer loop
vertex -25 -5 7
vertex -15 -5 17
vertex -15 -5 7
endloop
endfacet
facet normal 0 0 -1
outer loop
vertex -25 -15 7
vertex -25 -5 7
vertex -15 -5 7
endloop
endfacet
facet normal 0 0 -1
outer loop
vertex -25 -15 7
vertex -15 -5 7
vertex -15 -15 7
endloop
endfacet
facet normal 0 0 1
outer loop
vertex -25 -15 17
vertex -15 -15 17
vertex -15 -5 17
endloop
endfacet
facet normal 0 0 1
outer loop
vertex -25 -15 17
vertex -15 -5 17
vertex -25 -5 17
endloop
endfacet
endsolid csg.js
